<mxfile host="app.diagrams.net" agent="Mozilla/5.0 (Macintosh; Intel Mac OS X 10_15_7) AppleWebKit/537.36 (KHTML, like Gecko) Chrome/132.0.0.0 Safari/537.36" version="26.0.10">
  <diagram name="Page-1" id="8hNgK11_7AOxj7pc7t-C">
    <mxGraphModel dx="954" dy="639" grid="1" gridSize="10" guides="1" tooltips="1" connect="1" arrows="1" fold="1" page="1" pageScale="1" pageWidth="850" pageHeight="1100" math="0" shadow="0">
      <root>
        <mxCell id="0" />
        <mxCell id="1" parent="0" />
        <mxCell id="U7xp5NDUidK9t4_Rzh1s-4" style="edgeStyle=orthogonalEdgeStyle;rounded=0;orthogonalLoop=1;jettySize=auto;html=1;" edge="1" parent="1" source="U7xp5NDUidK9t4_Rzh1s-2" target="U7xp5NDUidK9t4_Rzh1s-3">
          <mxGeometry relative="1" as="geometry" />
        </mxCell>
        <mxCell id="U7xp5NDUidK9t4_Rzh1s-2" value="" style="strokeWidth=2;html=1;shape=mxgraph.flowchart.start_2;whiteSpace=wrap;" vertex="1" parent="1">
          <mxGeometry x="370" y="280" width="100" height="100" as="geometry" />
        </mxCell>
        <mxCell id="U7xp5NDUidK9t4_Rzh1s-5" style="edgeStyle=orthogonalEdgeStyle;rounded=0;orthogonalLoop=1;jettySize=auto;html=1;entryX=0.5;entryY=0;entryDx=0;entryDy=0;" edge="1" parent="1" source="U7xp5NDUidK9t4_Rzh1s-3" target="U7xp5NDUidK9t4_Rzh1s-7">
          <mxGeometry relative="1" as="geometry">
            <mxPoint x="600" y="430" as="targetPoint" />
          </mxGeometry>
        </mxCell>
        <mxCell id="U7xp5NDUidK9t4_Rzh1s-9" style="edgeStyle=orthogonalEdgeStyle;rounded=0;orthogonalLoop=1;jettySize=auto;html=1;entryX=0;entryY=0.5;entryDx=0;entryDy=0;" edge="1" parent="1" source="U7xp5NDUidK9t4_Rzh1s-3" target="U7xp5NDUidK9t4_Rzh1s-8">
          <mxGeometry relative="1" as="geometry" />
        </mxCell>
        <mxCell id="U7xp5NDUidK9t4_Rzh1s-3" value="" style="strokeWidth=2;html=1;shape=mxgraph.flowchart.decision;whiteSpace=wrap;" vertex="1" parent="1">
          <mxGeometry x="550" y="280" width="100" height="100" as="geometry" />
        </mxCell>
        <mxCell id="U7xp5NDUidK9t4_Rzh1s-7" value="Login" style="rounded=1;whiteSpace=wrap;html=1;absoluteArcSize=1;arcSize=14;strokeWidth=2;" vertex="1" parent="1">
          <mxGeometry x="550" y="440" width="100" height="100" as="geometry" />
        </mxCell>
        <mxCell id="U7xp5NDUidK9t4_Rzh1s-8" value="Regist" style="rounded=1;whiteSpace=wrap;html=1;absoluteArcSize=1;arcSize=14;strokeWidth=2;" vertex="1" parent="1">
          <mxGeometry x="720" y="280" width="100" height="100" as="geometry" />
        </mxCell>
      </root>
    </mxGraphModel>
  </diagram>
</mxfile>
